<?xml version="1.0" encoding="UTF-8" standalone="no"?>
<!DOCTYPE svg PUBLIC "-//W3C//DTD SVG 1.1//EN" "http://www.w3.org/Graphics/SVG/1.1/DTD/svg11.dtd">
<svg xmlns="http://www.w3.org/2000/svg" version="1.1" viewBox="0.00 0.00 130.00 130.00">
<g stroke-width="3.00" fill="none" stroke-linecap="butt">
<path stroke="#1b1a18" vector-effect="non-scaling-stroke" d="
  M 93.51 11.39
  Q 93.48 12.49 94.75 13.24
  Q 96.95 14.54 98.77 15.95
  Q 109.04 23.90 114.97 36.97
  Q 126.32 61.97 116.64 88.18
  Q 114.75 93.28 110.92 99.46"
/>
<path stroke="#252523" vector-effect="non-scaling-stroke" d="
  M 110.92 99.46
  Q 110.57 99.80 110.21 99.85
  A 0.57 0.57 0.0 0 1 109.59 99.41
  Q 109.17 97.39 109.72 95.70
  C 110.87 92.15 111.18 88.37 112.15 84.73
  Q 113.95 77.89 114.91 70.51
  C 115.32 67.32 115.01 64.26 115.07 61.08
  C 115.47 41.07 95.70 39.39 81.03 40.94
  Q 69.95 42.11 59.07 44.66
  Q 59.01 44.67 52.49 46.47
  Q 47.23 47.91 41.65 48.43"
/>
<path stroke="#862d26" vector-effect="non-scaling-stroke" d="
  M 41.65 48.43
  C 43.30 43.45 48.03 43.38 52.24 42.22
  C 55.47 41.33 58.57 38.43 60.72 35.55
  C 62.33 33.40 65.04 32.59 67.58 32.20
  C 70.59 31.74 72.75 29.58 74.44 27.13
  A 0.49 0.49 0.0 0 0 73.96 26.37
  Q 71.99 26.68 70.05 26.76
  C 66.30 26.91 63.66 24.12 60.01 24.20
  C 56.25 24.28 52.25 25.76 48.85 24.06
  C 43.44 21.35 39.51 20.19 33.28 20.96"
/>
<path stroke="#875237" vector-effect="non-scaling-stroke" d="
  M 33.28 20.96
  Q 32.39 20.71 31.88 21.79
  A 2.34 2.30 -38.9 0 0 31.71 23.28
  L 37.32 48.61"
/>
<path stroke="#252523" vector-effect="non-scaling-stroke" d="
  M 37.32 48.61
  Q 35.82 50.82 32.52 51.58
  Q 16.81 55.19 7.36 56.42"
/>
<path stroke="#1b1a18" vector-effect="non-scaling-stroke" d="
  M 7.36 56.42
  Q 9.37 42.19 16.74 30.38
  Q 20.58 24.24 26.90 20.67
  Q 38.60 14.07 49.81 5.72"
/>
<path stroke="#774329" vector-effect="non-scaling-stroke" d="
  M 39.51 49.81
  Q 42.34 57.80 42.81 66.15"
/>
<path stroke="#ebb59c" vector-effect="non-scaling-stroke" d="
  M 42.81 66.15
  L 41.31 66.18"
/>
<path stroke="#774329" vector-effect="non-scaling-stroke" d="
  M 41.31 66.18
  L 37.32 48.61"
/>
<path stroke="#0a0b0b" vector-effect="non-scaling-stroke" d="
  M 7.36 56.42
  Q 6.81 63.48 6.90 65.75
  Q 7.53 80.41 13.76 93.52
  Q 14.59 95.26 17.06 99.26
  Q 18.78 102.04 20.28 105.04"
/>
<path stroke="#751e19" vector-effect="non-scaling-stroke" d="
  M 41.65 48.43
  Q 40.79 48.29 39.51 49.81"
/>
<path stroke="#d84b2d" vector-effect="non-scaling-stroke" d="
  M 39.51 49.81
  Q 35.04 35.89 33.28 20.96"
/>
<path stroke="#888988" vector-effect="non-scaling-stroke" d="
  M 41.31 66.18
  L 18.91 66.33
  Q 17.54 66.34 18.32 67.46
  L 19.63 69.32
  A 2.66 2.66 0.0 0 0 21.83 70.46
  L 26.59 70.44
  Q 27.49 70.44 27.50 71.34
  L 27.52 77.53
  Q 27.52 78.31 26.74 78.26
  Q 25.23 78.18 23.60 78.32
  Q 22.65 78.40 22.52 79.29
  A 1.15 1.14 24.5 0 0 22.91 80.32
  Q 25.92 82.87 28.88 85.23
  Q 30.42 86.46 32.27 85.65
  Q 33.05 85.31 33.05 84.47
  L 33.05 70.98
  Q 33.05 70.51 33.52 70.50
  L 40.08 70.44
  A 0.64 0.64 0.0 0 1 40.73 71.08
  L 40.73 90.76
  Q 40.73 91.11 41.04 91.27
  L 46.01 93.83
  Q 46.18 93.92 46.18 93.73
  L 46.22 70.99
  Q 46.22 70.45 46.76 70.45
  L 76.02 70.45
  Q 76.33 70.45 76.33 70.77
  L 76.30 74.20
  Q 76.29 74.56 75.93 74.56
  L 62.73 74.63
  Q 59.16 74.65 61.84 77.01
  C 63.44 78.42 65.45 80.09 65.61 82.36
  Q 65.72 84.03 64.11 84.47
  C 59.28 85.79 55.62 81.43 53.75 77.49
  Q 53.19 76.32 51.90 76.51
  L 51.59 76.56
  Q 50.37 76.75 51.00 77.80
  Q 54.52 83.67 58.39 86.94
  C 60.15 88.44 64.77 90.77 67.18 89.69
  Q 74.22 86.50 66.65 79.08
  A 0.25 0.25 0.0 0 1 66.83 78.65
  L 76.00 78.70
  A 0.28 0.27 90.0 0 1 76.27 78.98
  L 76.28 89.94
  Q 76.29 90.98 77.20 91.49
  L 80.92 93.57
  Q 81.77 94.04 81.77 93.07
  L 81.75 70.73
  Q 81.75 70.45 82.02 70.45
  L 96.48 70.48
  A 0.25 0.25 0.0 0 1 96.73 70.73
  L 96.73 78.24
  Q 96.72 78.62 96.37 78.48
  Q 91.72 76.63 90.55 79.20
  Q 89.94 80.53 92.02 82.47
  Q 98.20 88.22 104.63 94.10
  Q 105.15 94.57 105.72 94.16
  L 106.71 93.47
  Q 107.36 93.01 106.77 92.49
  L 99.31 85.86
  A 0.54 0.53 -37.6 0 1 99.43 84.98
  Q 102.40 83.47 102.41 79.88
  Q 102.41 75.18 102.37 70.92
  A 0.42 0.42 0.0 0 1 102.79 70.49
  L 109.09 70.49
  Q 110.07 70.49 109.53 69.67
  L 107.84 67.11
  Q 107.35 66.38 106.46 66.38
  L 80.79 66.44
  A 1.19 1.18 -16.6 0 1 79.80 65.91
  C 78.26 63.59 76.11 59.12 77.64 56.34
  Q 77.97 55.74 78.65 55.63
  Q 81.07 55.24 82.46 57.20
  Q 83.30 58.37 84.70 58.06
  Q 85.18 57.95 85.37 57.15
  A 0.95 0.95 0.0 0 0 85.27 56.45
  Q 81.09 48.93 74.07 53.30
  C 69.79 55.96 74.69 63.17 76.68 65.71
  A 0.47 0.46 71.3 0 1 76.31 66.46
  L 42.81 66.15"
/>
<path stroke="#0a0b0b" vector-effect="non-scaling-stroke" d="
  M 110.41 101.77
  Q 111.01 100.67 110.92 99.46"
/>
<path stroke="#888988" vector-effect="non-scaling-stroke" d="
  M 42.18 96.20
  A 1.11 1.11 0.0 0 1 43.10 97.99
  C 38.30 104.23 30.63 100.57 25.68 96.47
  Q 24.85 95.79 23.81 96.08
  Q 23.49 96.17 23.28 96.42
  A 0.80 0.80 0.0 0 0 23.37 97.57
  Q 30.30 103.29 36.75 104.18
  C 39.70 104.58 44.07 104.25 45.82 101.52
  Q 48.28 97.67 44.56 94.81
  Q 39.79 91.14 33.93 94.97
  A 0.78 0.78 0.0 0 0 33.86 96.23
  L 36.21 98.18
  A 0.97 0.97 0.0 0 0 37.47 98.16
  Q 39.58 96.29 42.18 96.20"
/>
</g>
<path fill="#353430" d="
  M 93.51 11.39
  Q 93.48 12.49 94.75 13.24
  Q 96.95 14.54 98.77 15.95
  Q 109.04 23.90 114.97 36.97
  Q 126.32 61.97 116.64 88.18
  Q 114.75 93.28 110.92 99.46
  Q 110.57 99.80 110.21 99.85
  A 0.57 0.57 0.0 0 1 109.59 99.41
  Q 109.17 97.39 109.72 95.70
  C 110.87 92.15 111.18 88.37 112.15 84.73
  Q 113.95 77.89 114.91 70.51
  C 115.32 67.32 115.01 64.26 115.07 61.08
  C 115.47 41.07 95.70 39.39 81.03 40.94
  Q 69.95 42.11 59.07 44.66
  Q 59.01 44.67 52.49 46.47
  Q 47.23 47.91 41.65 48.43
  C 43.30 43.45 48.03 43.38 52.24 42.22
  C 55.47 41.33 58.57 38.43 60.72 35.55
  C 62.33 33.40 65.04 32.59 67.58 32.20
  C 70.59 31.74 72.75 29.58 74.44 27.13
  A 0.49 0.49 0.0 0 0 73.96 26.37
  Q 71.99 26.68 70.05 26.76
  C 66.30 26.91 63.66 24.12 60.01 24.20
  C 56.25 24.28 52.25 25.76 48.85 24.06
  C 43.44 21.35 39.51 20.19 33.28 20.96
  Q 32.39 20.71 31.88 21.79
  A 2.34 2.30 -38.9 0 0 31.71 23.28
  L 37.32 48.61
  Q 35.82 50.82 32.52 51.58
  Q 16.81 55.19 7.36 56.42
  Q 9.37 42.19 16.74 30.38
  Q 20.58 24.24 26.90 20.67
  Q 38.60 14.07 49.81 5.72
  Q 72.32 0.43 93.51 11.39
  Z"
/>
<path fill="#000000" d="
  M 49.81 5.72
  Q 38.60 14.07 26.90 20.67
  Q 20.58 24.24 16.74 30.38
  Q 9.37 42.19 7.36 56.42
  Q 6.81 63.48 6.90 65.75
  Q 7.53 80.41 13.76 93.52
  Q 14.59 95.26 17.06 99.26
  Q 18.78 102.04 20.28 105.04
  C -0.14 84.28 -2.83 52.75 14.25 29.04
  Q 27.02 11.32 49.81 5.72
  Z"
/>
<path fill="#000000" d="
  M 93.51 11.39
  C 126.69 29.96 135.47 71.63 111.11 101.36
  Q 110.81 101.72 110.41 101.77
  Q 111.01 100.67 110.92 99.46
  Q 114.75 93.28 116.64 88.18
  Q 126.32 61.97 114.97 36.97
  Q 109.04 23.90 98.77 15.95
  Q 96.95 14.54 94.75 13.24
  Q 93.48 12.49 93.51 11.39
  Z"
/>
<path fill="#d6261c" d="
  M 41.65 48.43
  Q 40.79 48.29 39.51 49.81
  Q 35.04 35.89 33.28 20.96
  C 39.51 20.19 43.44 21.35 48.85 24.06
  C 52.25 25.76 56.25 24.28 60.01 24.20
  C 63.66 24.12 66.30 26.91 70.05 26.76
  Q 71.99 26.68 73.96 26.37
  A 0.49 0.49 0.0 0 1 74.44 27.13
  C 72.75 29.58 70.59 31.74 67.58 32.20
  C 65.04 32.59 62.33 33.40 60.72 35.55
  C 58.57 38.43 55.47 41.33 52.24 42.22
  C 48.03 43.38 43.30 43.45 41.65 48.43
  Z"
/>
<path fill="#d96f3d" d="
  M 33.28 20.96
  Q 35.04 35.89 39.51 49.81
  Q 42.34 57.80 42.81 66.15
  L 41.31 66.18
  L 37.32 48.61
  L 31.71 23.28
  A 2.34 2.30 -38.9 0 1 31.88 21.79
  Q 32.39 20.71 33.28 20.96
  Z"
/>
<path fill="#141615" d="
  M 110.92 99.46
  Q 111.01 100.67 110.41 101.77
  Q 110.69 101.95 110.34 102.34
  C 96.41 117.54 77.13 124.85 56.79 122.55
  Q 35.86 120.18 20.28 105.04
  Q 18.78 102.04 17.06 99.26
  Q 14.59 95.26 13.76 93.52
  Q 7.53 80.41 6.90 65.75
  Q 6.81 63.48 7.36 56.42
  Q 16.81 55.19 32.52 51.58
  Q 35.82 50.82 37.32 48.61
  L 41.31 66.18
  L 18.91 66.33
  Q 17.54 66.34 18.32 67.46
  L 19.63 69.32
  A 2.66 2.66 0.0 0 0 21.83 70.46
  L 26.59 70.44
  Q 27.49 70.44 27.50 71.34
  L 27.52 77.53
  Q 27.52 78.31 26.74 78.26
  Q 25.23 78.18 23.60 78.32
  Q 22.65 78.40 22.52 79.29
  A 1.15 1.14 24.5 0 0 22.91 80.32
  Q 25.92 82.87 28.88 85.23
  Q 30.42 86.46 32.27 85.65
  Q 33.05 85.31 33.05 84.47
  L 33.05 70.98
  Q 33.05 70.51 33.52 70.50
  L 40.08 70.44
  A 0.64 0.64 0.0 0 1 40.73 71.08
  L 40.73 90.76
  Q 40.73 91.11 41.04 91.27
  L 46.01 93.83
  Q 46.18 93.92 46.18 93.73
  L 46.22 70.99
  Q 46.22 70.45 46.76 70.45
  L 76.02 70.45
  Q 76.33 70.45 76.33 70.77
  L 76.30 74.20
  Q 76.29 74.56 75.93 74.56
  L 62.73 74.63
  Q 59.16 74.65 61.84 77.01
  C 63.44 78.42 65.45 80.09 65.61 82.36
  Q 65.72 84.03 64.11 84.47
  C 59.28 85.79 55.62 81.43 53.75 77.49
  Q 53.19 76.32 51.90 76.51
  L 51.59 76.56
  Q 50.37 76.75 51.00 77.80
  Q 54.52 83.67 58.39 86.94
  C 60.15 88.44 64.77 90.77 67.18 89.69
  Q 74.22 86.50 66.65 79.08
  A 0.25 0.25 0.0 0 1 66.83 78.65
  L 76.00 78.70
  A 0.28 0.27 90.0 0 1 76.27 78.98
  L 76.28 89.94
  Q 76.29 90.98 77.20 91.49
  L 80.92 93.57
  Q 81.77 94.04 81.77 93.07
  L 81.75 70.73
  Q 81.75 70.45 82.02 70.45
  L 96.48 70.48
  A 0.25 0.25 0.0 0 1 96.73 70.73
  L 96.73 78.24
  Q 96.72 78.62 96.37 78.48
  Q 91.72 76.63 90.55 79.20
  Q 89.94 80.53 92.02 82.47
  Q 98.20 88.22 104.63 94.10
  Q 105.15 94.57 105.72 94.16
  L 106.71 93.47
  Q 107.36 93.01 106.77 92.49
  L 99.31 85.86
  A 0.54 0.53 -37.6 0 1 99.43 84.98
  Q 102.40 83.47 102.41 79.88
  Q 102.41 75.18 102.37 70.92
  A 0.42 0.42 0.0 0 1 102.79 70.49
  L 109.09 70.49
  Q 110.07 70.49 109.53 69.67
  L 107.84 67.11
  Q 107.35 66.38 106.46 66.38
  L 80.79 66.44
  A 1.19 1.18 -16.6 0 1 79.80 65.91
  C 78.26 63.59 76.11 59.12 77.64 56.34
  Q 77.97 55.74 78.65 55.63
  Q 81.07 55.24 82.46 57.20
  Q 83.30 58.37 84.70 58.06
  Q 85.18 57.95 85.37 57.15
  A 0.95 0.95 0.0 0 0 85.27 56.45
  Q 81.09 48.93 74.07 53.30
  C 69.79 55.96 74.69 63.17 76.68 65.71
  A 0.47 0.46 71.3 0 1 76.31 66.46
  L 42.81 66.15
  Q 42.34 57.80 39.51 49.81
  Q 40.79 48.29 41.65 48.43
  Q 47.23 47.91 52.49 46.47
  Q 59.01 44.67 59.07 44.66
  Q 69.95 42.11 81.03 40.94
  C 95.70 39.39 115.47 41.07 115.07 61.08
  C 115.01 64.26 115.32 67.32 114.91 70.51
  Q 113.95 77.89 112.15 84.73
  C 111.18 88.37 110.87 92.15 109.72 95.70
  Q 109.17 97.39 109.59 99.41
  A 0.57 0.57 0.0 0 0 110.21 99.85
  Q 110.57 99.80 110.92 99.46
  Z
  M 42.18 96.20
  A 1.11 1.11 0.0 0 1 43.10 97.99
  C 38.30 104.23 30.63 100.57 25.68 96.47
  Q 24.85 95.79 23.81 96.08
  Q 23.49 96.17 23.28 96.42
  A 0.80 0.80 0.0 0 0 23.37 97.57
  Q 30.30 103.29 36.75 104.18
  C 39.70 104.58 44.07 104.25 45.82 101.52
  Q 48.28 97.67 44.56 94.81
  Q 39.79 91.14 33.93 94.97
  A 0.78 0.78 0.0 0 0 33.86 96.23
  L 36.21 98.18
  A 0.97 0.97 0.0 0 0 37.47 98.16
  Q 39.58 96.29 42.18 96.20
  Z"
/>
<path fill="#fcfbfb" d="
  M 41.31 66.18
  L 42.81 66.15
  L 76.31 66.46
  A 0.47 0.46 71.3 0 0 76.68 65.71
  C 74.69 63.17 69.79 55.96 74.07 53.30
  Q 81.09 48.93 85.27 56.45
  A 0.95 0.95 0.0 0 1 85.37 57.15
  Q 85.18 57.95 84.70 58.06
  Q 83.30 58.37 82.46 57.20
  Q 81.07 55.24 78.65 55.63
  Q 77.97 55.74 77.64 56.34
  C 76.11 59.12 78.26 63.59 79.80 65.91
  A 1.19 1.18 -16.6 0 0 80.79 66.44
  L 106.46 66.38
  Q 107.35 66.38 107.84 67.11
  L 109.53 69.67
  Q 110.07 70.49 109.09 70.49
  L 102.79 70.49
  A 0.42 0.42 0.0 0 0 102.37 70.92
  Q 102.41 75.18 102.41 79.88
  Q 102.40 83.47 99.43 84.98
  A 0.54 0.53 -37.6 0 0 99.31 85.86
  L 106.77 92.49
  Q 107.36 93.01 106.71 93.47
  L 105.72 94.16
  Q 105.15 94.57 104.63 94.10
  Q 98.20 88.22 92.02 82.47
  Q 89.94 80.53 90.55 79.20
  Q 91.72 76.63 96.37 78.48
  Q 96.72 78.62 96.73 78.24
  L 96.73 70.73
  A 0.25 0.25 0.0 0 0 96.48 70.48
  L 82.02 70.45
  Q 81.75 70.45 81.75 70.73
  L 81.77 93.07
  Q 81.77 94.04 80.92 93.57
  L 77.20 91.49
  Q 76.29 90.98 76.28 89.94
  L 76.27 78.98
  A 0.28 0.27 -90.0 0 0 76.00 78.70
  L 66.83 78.65
  A 0.25 0.25 0.0 0 0 66.65 79.08
  Q 74.22 86.50 67.18 89.69
  C 64.77 90.77 60.15 88.44 58.39 86.94
  Q 54.52 83.67 51.00 77.80
  Q 50.37 76.75 51.59 76.56
  L 51.90 76.51
  Q 53.19 76.32 53.75 77.49
  C 55.62 81.43 59.28 85.79 64.11 84.47
  Q 65.72 84.03 65.61 82.36
  C 65.45 80.09 63.44 78.42 61.84 77.01
  Q 59.16 74.65 62.73 74.63
  L 75.93 74.56
  Q 76.29 74.56 76.30 74.20
  L 76.33 70.77
  Q 76.33 70.45 76.02 70.45
  L 46.76 70.45
  Q 46.22 70.45 46.22 70.99
  L 46.18 93.73
  Q 46.18 93.92 46.01 93.83
  L 41.04 91.27
  Q 40.73 91.11 40.73 90.76
  L 40.73 71.08
  A 0.64 0.64 0.0 0 0 40.08 70.44
  L 33.52 70.50
  Q 33.05 70.51 33.05 70.98
  L 33.05 84.47
  Q 33.05 85.31 32.27 85.65
  Q 30.42 86.46 28.88 85.23
  Q 25.92 82.87 22.91 80.32
  A 1.15 1.14 24.5 0 1 22.52 79.29
  Q 22.65 78.40 23.60 78.32
  Q 25.23 78.18 26.74 78.26
  Q 27.52 78.31 27.52 77.53
  L 27.50 71.34
  Q 27.49 70.44 26.59 70.44
  L 21.83 70.46
  A 2.66 2.66 0.0 0 1 19.63 69.32
  L 18.32 67.46
  Q 17.54 66.34 18.91 66.33
  L 41.31 66.18
  Z"
/>
<path fill="#fcfbfb" d="
  M 42.18 96.20
  Q 39.58 96.29 37.47 98.16
  A 0.97 0.97 0.0 0 1 36.21 98.18
  L 33.86 96.23
  A 0.78 0.78 0.0 0 1 33.93 94.97
  Q 39.79 91.14 44.56 94.81
  Q 48.28 97.67 45.82 101.52
  C 44.07 104.25 39.70 104.58 36.75 104.18
  Q 30.30 103.29 23.37 97.57
  A 0.80 0.80 0.0 0 1 23.28 96.42
  Q 23.49 96.17 23.81 96.08
  Q 24.85 95.79 25.68 96.47
  C 30.63 100.57 38.30 104.23 43.10 97.99
  A 1.11 1.11 0.0 0 0 42.18 96.20
  Z"
/>
</svg>
